<svg width="48" height="48" viewBox="0 0 48 48" fill="none" xmlns="http://www.w3.org/2000/svg">
<path d="M23.3447 0.57247C23.7207 0.246258 24.2793 0.246258 24.6553 0.572469L28.8503 4.212C29.0823 4.41328 29.3939 4.49678 29.6955 4.43847L35.1482 3.38402C35.6369 3.28951 36.1207 3.56885 36.2833 4.03935L38.0964 9.28875C38.1967 9.57907 38.4248 9.8072 38.7152 9.90748L43.9646 11.7207C44.4351 11.8832 44.7144 12.367 44.6199 12.8557L43.5654 18.3084C43.5071 18.61 43.5906 18.9216 43.7919 19.1536L47.4314 23.3486C47.7576 23.7246 47.7576 24.2832 47.4314 24.6592L43.7919 28.8542C43.5906 29.0862 43.5071 29.3978 43.5654 29.6994L44.6199 35.1521C44.7144 35.6408 44.4351 36.1246 43.9646 36.2872L38.7152 38.1003C38.4248 38.2006 38.1967 38.4287 38.0964 38.7191L36.2833 43.9685C36.1207 44.439 35.6369 44.7183 35.1482 44.6238L29.6955 43.5693C29.3939 43.511 29.0823 43.5945 28.8503 43.7958L24.6553 47.4353C24.2793 47.7616 23.7207 47.7616 23.3447 47.4353L19.1497 43.7958C18.9177 43.5945 18.6061 43.511 18.3045 43.5693L12.8518 44.6238C12.3631 44.7183 11.8793 44.439 11.7167 43.9685L9.90357 38.7191C9.8033 38.4287 9.57517 38.2006 9.28485 38.1003L4.03545 36.2872C3.56494 36.1246 3.28561 35.6408 3.38012 35.1521L4.43456 29.6994C4.49288 29.3978 4.40937 29.0862 4.20809 28.8542L0.568563 24.6592C0.242352 24.2832 0.242351 23.7246 0.568563 23.3486L4.20809 19.1536C4.40937 18.9216 4.49288 18.61 4.43456 18.3084L3.38012 12.8557C3.28561 12.367 3.56494 11.8832 4.03545 11.7207L9.28485 9.90748C9.57516 9.8072 9.8033 9.57907 9.90357 9.28875L11.7167 4.03935C11.8793 3.56885 12.3631 3.28951 12.8518 3.38402L18.3045 4.43847C18.6061 4.49678 18.9177 4.41328 19.1497 4.212L23.3447 0.57247Z" fill="#FFF705"/>
</svg>
